<svg xmlns="http://www.w3.org/2000/svg" xmlns:xlink="http://www.w3.org/1999/xlink" width="500" zoomAndPan="magnify" viewBox="0 0 375 374.999991" height="500" preserveAspectRatio="xMidYMid meet" version="1.0"><defs><g/><clipPath id="643610051f"><rect x="0" width="274" y="0" height="46"/></clipPath></defs><g fill="#1f73ff" fill-opacity="1"><g transform="translate(11.468105, 203.939679)"><g><path d="M 8.390625 -77.953125 L 71.390625 -77.953125 L 71.390625 -59.265625 L 33.421875 -59.265625 L 33.421875 -45.890625 L 66.0625 -45.890625 L 66.0625 -27.984375 L 33.421875 -27.984375 L 33.421875 0 L 8.390625 0 Z M 8.390625 -77.953125 "/></g></g></g><g fill="#1f73ff" fill-opacity="1"><g transform="translate(80.585941, 203.939679)"><g><path d="M 37.734375 -61.1875 C 48.234375 -61.1875 56.484375 -58.523438 62.484375 -53.203125 C 68.492188 -47.878906 71.5 -40.117188 71.5 -29.921875 C 71.5 -19.722656 68.492188 -11.957031 62.484375 -6.625 C 56.484375 -1.300781 48.234375 1.359375 37.734375 1.359375 C 27.234375 1.359375 19 -1.28125 13.03125 -6.5625 C 7.0625 -11.851562 4.078125 -19.640625 4.078125 -29.921875 C 4.078125 -40.191406 7.0625 -47.96875 13.03125 -53.25 C 19 -58.539062 27.234375 -61.1875 37.734375 -61.1875 Z M 37.734375 -45.890625 C 30.328125 -45.890625 26.625 -41.625 26.625 -33.09375 L 26.625 -26.625 C 26.625 -18.164062 30.328125 -13.9375 37.734375 -13.9375 C 45.210938 -13.9375 48.953125 -18.164062 48.953125 -26.625 L 48.953125 -33.09375 C 48.953125 -41.625 45.210938 -45.890625 37.734375 -45.890625 Z M 37.734375 -45.890625 "/></g></g></g><g fill="#1f73ff" fill-opacity="1"><g transform="translate(149.703776, 203.939679)"><g><path d="M 50.203125 0 L 48.71875 -9.0625 C 46.382812 -5.8125 43.304688 -3.257812 39.484375 -1.40625 C 35.671875 0.4375 31.648438 1.359375 27.421875 1.359375 C 20.472656 1.359375 15.257812 -0.566406 11.78125 -4.421875 C 8.3125 -8.273438 6.578125 -13.828125 6.578125 -21.078125 L 6.578125 -59.828125 L 29.125 -59.828125 L 29.125 -23.796875 C 29.125 -21.222656 29.785156 -19.160156 31.109375 -17.609375 C 32.429688 -16.066406 34.300781 -15.296875 36.71875 -15.296875 C 39.507812 -15.296875 41.773438 -16.203125 43.515625 -18.015625 C 45.253906 -19.828125 46.125 -22.054688 46.125 -24.703125 L 46.125 -59.828125 L 68.671875 -59.828125 L 68.671875 0 Z M 50.203125 0 "/></g></g></g><g fill="#1f73ff" fill-opacity="1"><g transform="translate(218.821623, 203.939679)"><g><path d="M 48.046875 -61.1875 C 54.992188 -61.1875 60.203125 -59.257812 63.671875 -55.40625 C 67.148438 -51.550781 68.890625 -46 68.890625 -38.75 L 68.890625 0 L 46.34375 0 L 46.34375 -36.03125 C 46.34375 -38.601562 45.679688 -40.660156 44.359375 -42.203125 C 43.035156 -43.753906 41.164062 -44.53125 38.75 -44.53125 C 35.957031 -44.53125 33.691406 -43.625 31.953125 -41.8125 C 30.210938 -40 29.34375 -37.769531 29.34375 -35.125 L 29.34375 0 L 6.796875 0 L 6.796875 -59.828125 L 25.265625 -59.828125 L 26.734375 -50.765625 C 29.078125 -53.929688 32.15625 -56.457031 35.96875 -58.34375 C 39.789062 -60.238281 43.816406 -61.1875 48.046875 -61.1875 Z M 48.046875 -61.1875 "/></g></g></g><g fill="#1f73ff" fill-opacity="1"><g transform="translate(287.939446, 203.939679)"><g><path d="M 50.3125 0 L 48.390625 -8.5 C 44.003906 -1.925781 37.65625 1.359375 29.34375 1.359375 C 21.257812 1.359375 15.023438 -1.28125 10.640625 -6.5625 C 6.265625 -11.851562 4.078125 -19.675781 4.078125 -30.03125 C 4.078125 -40.300781 6.265625 -48.0625 10.640625 -53.3125 C 15.023438 -58.5625 21.257812 -61.1875 29.34375 -61.1875 C 36.21875 -61.1875 41.8125 -58.882812 46.125 -54.28125 L 46.125 -82.15625 L 68.671875 -82.15625 L 68.671875 0 Z M 36.375 -44.53125 C 29.875 -44.53125 26.625 -40.640625 26.625 -32.859375 L 26.625 -26.859375 C 26.625 -19.148438 29.875 -15.296875 36.375 -15.296875 C 39.695312 -15.296875 42.1875 -16.46875 43.84375 -18.8125 C 45.507812 -21.15625 46.34375 -24.210938 46.34375 -27.984375 L 46.34375 -31.734375 C 46.34375 -35.503906 45.507812 -38.578125 43.84375 -40.953125 C 42.1875 -43.335938 39.695312 -44.53125 36.375 -44.53125 Z M 36.375 -44.53125 "/></g></g></g><g transform="matrix(1, 0, 0, 1, 59, 223)"><g clip-path="url(#643610051f)"><g fill="#ffffff" fill-opacity="1"><g transform="translate(1.794406, 35.95377)"><g><path d="M 26.46875 -28.3125 L 7.15625 -28.3125 L 7.15625 -17.515625 L 25.046875 -17.515625 L 25.046875 -14.390625 L 7.15625 -14.390625 L 7.15625 0 L 3.21875 0 L 3.21875 -31.484375 L 26.46875 -31.484375 Z M 26.46875 -28.3125 "/></g></g></g><g fill="#ffffff" fill-opacity="1"><g transform="translate(48.814059, 35.95377)"><g><path d="M 18.28125 0.8125 C 14.644531 0.8125 11.664062 0.09375 9.34375 -1.34375 C 7.03125 -2.78125 5.328125 -4.753906 4.234375 -7.265625 C 3.148438 -9.773438 2.609375 -12.609375 2.609375 -15.765625 C 2.609375 -18.890625 3.148438 -21.707031 4.234375 -24.21875 C 5.328125 -26.726562 7.03125 -28.707031 9.34375 -30.15625 C 11.664062 -31.601562 14.644531 -32.328125 18.28125 -32.328125 C 21.9375 -32.328125 24.914062 -31.59375 27.21875 -30.125 C 29.519531 -28.664062 31.222656 -26.6875 32.328125 -24.1875 C 33.441406 -21.695312 34 -18.890625 34 -15.765625 C 34 -12.609375 33.441406 -9.78125 32.328125 -7.28125 C 31.222656 -4.789062 29.519531 -2.816406 27.21875 -1.359375 C 24.914062 0.0859375 21.9375 0.8125 18.28125 0.8125 Z M 6.71875 -15.765625 C 6.71875 -11.347656 7.640625 -8.023438 9.484375 -5.796875 C 11.335938 -3.578125 14.269531 -2.46875 18.28125 -2.46875 C 22.3125 -2.46875 25.25 -3.578125 27.09375 -5.796875 C 28.945312 -8.023438 29.875 -11.347656 29.875 -15.765625 C 29.875 -20.179688 28.945312 -23.5 27.09375 -25.71875 C 25.25 -27.945312 22.3125 -29.0625 18.28125 -29.0625 C 14.269531 -29.0625 11.335938 -27.945312 9.484375 -25.71875 C 7.640625 -23.5 6.71875 -20.179688 6.71875 -15.765625 Z M 6.71875 -15.765625 "/></g></g></g><g fill="#ffffff" fill-opacity="1"><g transform="translate(103.362039, 35.95377)"><g><path d="M 26.5625 -8.328125 L 26.5625 -5.015625 C 26.5625 -3.847656 26.628906 -2.867188 26.765625 -2.078125 C 26.910156 -1.296875 27.046875 -0.601562 27.171875 0 L 23.34375 0 C 23.1875 -0.539062 23.050781 -1.203125 22.9375 -1.984375 C 22.820312 -2.773438 22.765625 -3.738281 22.765625 -4.875 L 22.765625 -7.765625 C 22.765625 -10.003906 22.179688 -11.617188 21.015625 -12.609375 C 19.847656 -13.609375 18.175781 -14.109375 16 -14.109375 L 7.15625 -14.109375 L 7.15625 0 L 3.21875 0 L 3.21875 -31.484375 L 17.890625 -31.484375 C 21.140625 -31.484375 23.5625 -30.734375 25.15625 -29.234375 C 26.75 -27.734375 27.546875 -25.722656 27.546875 -23.203125 C 27.546875 -21.085938 26.96875 -19.332031 25.8125 -17.9375 C 24.664062 -16.550781 23.210938 -15.65625 21.453125 -15.25 C 22.460938 -14.957031 23.34375 -14.566406 24.09375 -14.078125 C 24.851562 -13.585938 25.453125 -12.894531 25.890625 -12 C 26.335938 -11.101562 26.5625 -9.878906 26.5625 -8.328125 Z M 17.421875 -17.046875 C 19.628906 -17.046875 21.179688 -17.566406 22.078125 -18.609375 C 22.984375 -19.648438 23.4375 -21.066406 23.4375 -22.859375 C 23.4375 -24.691406 22.953125 -26.054688 21.984375 -26.953125 C 21.023438 -27.859375 19.519531 -28.3125 17.46875 -28.3125 L 7.15625 -28.3125 L 7.15625 -17.046875 Z M 17.421875 -17.046875 "/></g></g></g><g fill="#ffffff" fill-opacity="1"><g transform="translate(151.944164, 35.95377)"><g/></g></g><g fill="#ffffff" fill-opacity="1"><g transform="translate(180.545431, 35.95377)"><g><path d="M 27.453125 0 L 24.375 -8.046875 L 8.765625 -8.046875 L 5.6875 0 L 1.75 0 L 13.6875 -31.484375 L 19.5 -31.484375 L 31.4375 0 Z M 9.9375 -11.21875 L 23.203125 -11.21875 L 16.5625 -28.640625 Z M 9.9375 -11.21875 "/></g></g></g><g fill="#ffffff" fill-opacity="1"><g transform="translate(231.589667, 35.95377)"><g><path d="M 20.40625 -28.3125 L 13.734375 -28.3125 L 13.734375 -3.171875 L 20.40625 -3.171875 L 20.40625 0 L 3.171875 0 L 3.171875 -3.171875 L 9.84375 -3.171875 L 9.84375 -28.3125 L 3.171875 -28.3125 L 3.171875 -31.484375 L 20.40625 -31.484375 Z M 20.40625 -28.3125 "/></g></g></g></g></g></svg>